<mxfile host="app.diagrams.net" modified="2023-11-19T13:19:56.654Z" agent="Mozilla/5.0 (Windows NT 10.0; Win64; x64) AppleWebKit/537.36 (KHTML, like Gecko) Chrome/119.0.0.0 Safari/537.36" etag="yutuo3AKY7XXpu-4oaZv" version="22.1.3" type="device">
  <diagram name="PÃ¡gina-1" id="ORwudosIWT2M_ZV55Y6_">
    <mxGraphModel dx="2441" dy="856" grid="1" gridSize="10" guides="1" tooltips="1" connect="1" arrows="1" fold="1" page="1" pageScale="1" pageWidth="827" pageHeight="1169" background="none" math="0" shadow="0">
      <root>
        <mxCell id="0" />
        <mxCell id="1" parent="0" />
        <mxCell id="EKwut9ztzNgbHUZFUR4z-126" style="edgeStyle=orthogonalEdgeStyle;rounded=0;orthogonalLoop=1;jettySize=auto;html=1;entryX=1;entryY=0.5;entryDx=0;entryDy=0;fontFamily=Helvetica;fontSize=12;fontColor=default;" edge="1" parent="1" source="EKwut9ztzNgbHUZFUR4z-6" target="EKwut9ztzNgbHUZFUR4z-7">
          <mxGeometry relative="1" as="geometry" />
        </mxCell>
        <mxCell id="EKwut9ztzNgbHUZFUR4z-6" value="&lt;font style=&quot;font-size: 17px;&quot;&gt;&lt;b&gt;Proservices&lt;/b&gt;&lt;/font&gt;" style="ellipse;whiteSpace=wrap;html=1;fillColor=#f8cecc;strokeColor=#b85450;" vertex="1" parent="1">
          <mxGeometry x="358.5" y="10" width="290" height="60" as="geometry" />
        </mxCell>
        <mxCell id="EKwut9ztzNgbHUZFUR4z-125" style="edgeStyle=orthogonalEdgeStyle;rounded=0;orthogonalLoop=1;jettySize=auto;html=1;exitX=0.5;exitY=1;exitDx=0;exitDy=0;entryX=0.5;entryY=0;entryDx=0;entryDy=0;fontFamily=Helvetica;fontSize=12;fontColor=default;" edge="1" parent="1" source="EKwut9ztzNgbHUZFUR4z-7" target="EKwut9ztzNgbHUZFUR4z-9">
          <mxGeometry relative="1" as="geometry" />
        </mxCell>
        <mxCell id="EKwut9ztzNgbHUZFUR4z-7" value="ADMINISTRADOR" style="whiteSpace=wrap;html=1;fillColor=#dae8fc;strokeColor=#6c8ebf;" vertex="1" parent="1">
          <mxGeometry x="180" y="10" width="120" height="60" as="geometry" />
        </mxCell>
        <mxCell id="EKwut9ztzNgbHUZFUR4z-12" value="" style="edgeStyle=orthogonalEdgeStyle;rounded=0;orthogonalLoop=1;jettySize=auto;html=1;" edge="1" parent="1" target="EKwut9ztzNgbHUZFUR4z-11">
          <mxGeometry relative="1" as="geometry">
            <mxPoint x="168.75" y="230" as="sourcePoint" />
          </mxGeometry>
        </mxCell>
        <mxCell id="EKwut9ztzNgbHUZFUR4z-9" value="ALTAS_BAJAS&lt;br&gt;SERVICIO&lt;br&gt;- Lista de tareas" style="rhombus;whiteSpace=wrap;html=1;fillColor=#d5e8d4;strokeColor=#82b366;" vertex="1" parent="1">
          <mxGeometry x="66.25" y="157" width="205" height="100" as="geometry" />
        </mxCell>
        <mxCell id="EKwut9ztzNgbHUZFUR4z-39" value="" style="edgeStyle=orthogonalEdgeStyle;rounded=0;orthogonalLoop=1;jettySize=auto;html=1;" edge="1" parent="1" source="EKwut9ztzNgbHUZFUR4z-11" target="EKwut9ztzNgbHUZFUR4z-38">
          <mxGeometry relative="1" as="geometry" />
        </mxCell>
        <mxCell id="EKwut9ztzNgbHUZFUR4z-11" value="SERVICIO" style="whiteSpace=wrap;html=1;fillColor=#dae8fc;strokeColor=#6c8ebf;" vertex="1" parent="1">
          <mxGeometry x="110" y="320" width="117.5" height="80" as="geometry" />
        </mxCell>
        <mxCell id="EKwut9ztzNgbHUZFUR4z-23" style="edgeStyle=orthogonalEdgeStyle;rounded=0;orthogonalLoop=1;jettySize=auto;html=1;entryX=0.5;entryY=1;entryDx=0;entryDy=0;exitX=0.5;exitY=0;exitDx=0;exitDy=0;" edge="1" parent="1" source="EKwut9ztzNgbHUZFUR4z-14" target="EKwut9ztzNgbHUZFUR4z-11">
          <mxGeometry relative="1" as="geometry">
            <mxPoint x="168.8499999999999" y="450.05436893203887" as="sourcePoint" />
          </mxGeometry>
        </mxCell>
        <mxCell id="EKwut9ztzNgbHUZFUR4z-14" value="&lt;b&gt;OFRECER&lt;/b&gt;" style="rhombus;whiteSpace=wrap;html=1;fillColor=#d5e8d4;strokeColor=#82b366;" vertex="1" parent="1">
          <mxGeometry x="93.75" y="477.5" width="150" height="70" as="geometry" />
        </mxCell>
        <mxCell id="EKwut9ztzNgbHUZFUR4z-21" style="edgeStyle=orthogonalEdgeStyle;rounded=0;orthogonalLoop=1;jettySize=auto;html=1;exitX=0.5;exitY=0;exitDx=0;exitDy=0;entryX=0.5;entryY=1;entryDx=0;entryDy=0;" edge="1" parent="1" target="EKwut9ztzNgbHUZFUR4z-14">
          <mxGeometry relative="1" as="geometry">
            <mxPoint x="168.75" y="650" as="sourcePoint" />
            <mxPoint x="169" y="590" as="targetPoint" />
          </mxGeometry>
        </mxCell>
        <mxCell id="EKwut9ztzNgbHUZFUR4z-16" value="&lt;b&gt;PRESTADOR&lt;br&gt;&lt;/b&gt;" style="whiteSpace=wrap;html=1;fillColor=#dae8fc;strokeColor=#6c8ebf;align=center;" vertex="1" parent="1">
          <mxGeometry x="87.5" y="646" width="156.25" height="70" as="geometry" />
        </mxCell>
        <mxCell id="EKwut9ztzNgbHUZFUR4z-31" style="edgeStyle=orthogonalEdgeStyle;rounded=0;orthogonalLoop=1;jettySize=auto;html=1;exitX=0;exitY=0.5;exitDx=0;exitDy=0;entryX=1;entryY=0.5;entryDx=0;entryDy=0;" edge="1" parent="1" source="EKwut9ztzNgbHUZFUR4z-24" target="EKwut9ztzNgbHUZFUR4z-27">
          <mxGeometry relative="1" as="geometry" />
        </mxCell>
        <mxCell id="EKwut9ztzNgbHUZFUR4z-112" value="" style="edgeStyle=orthogonalEdgeStyle;rounded=0;orthogonalLoop=1;jettySize=auto;html=1;fontFamily=Helvetica;fontSize=12;fontColor=default;entryX=1;entryY=0.5;entryDx=0;entryDy=0;" edge="1" parent="1" source="EKwut9ztzNgbHUZFUR4z-24" target="EKwut9ztzNgbHUZFUR4z-111">
          <mxGeometry relative="1" as="geometry" />
        </mxCell>
        <mxCell id="EKwut9ztzNgbHUZFUR4z-24" value="&lt;b&gt;CONSUMIDOR&lt;/b&gt;" style="whiteSpace=wrap;html=1;fillColor=#dae8fc;strokeColor=#6c8ebf;" vertex="1" parent="1">
          <mxGeometry x="625" y="320" width="117.5" height="80" as="geometry" />
        </mxCell>
        <mxCell id="EKwut9ztzNgbHUZFUR4z-34" style="edgeStyle=orthogonalEdgeStyle;rounded=0;orthogonalLoop=1;jettySize=auto;html=1;exitX=0;exitY=0.5;exitDx=0;exitDy=0;entryX=1;entryY=0.5;entryDx=0;entryDy=0;" edge="1" parent="1" source="EKwut9ztzNgbHUZFUR4z-27" target="EKwut9ztzNgbHUZFUR4z-11">
          <mxGeometry relative="1" as="geometry" />
        </mxCell>
        <mxCell id="EKwut9ztzNgbHUZFUR4z-27" value="CONTRATO" style="rhombus;whiteSpace=wrap;html=1;fillColor=#d5e8d4;strokeColor=#82b366;" vertex="1" parent="1">
          <mxGeometry x="306.25" y="315" width="190" height="90" as="geometry" />
        </mxCell>
        <mxCell id="EKwut9ztzNgbHUZFUR4z-42" value="" style="edgeStyle=orthogonalEdgeStyle;rounded=0;orthogonalLoop=1;jettySize=auto;html=1;" edge="1" parent="1" source="EKwut9ztzNgbHUZFUR4z-38" target="EKwut9ztzNgbHUZFUR4z-41">
          <mxGeometry relative="1" as="geometry" />
        </mxCell>
        <mxCell id="EKwut9ztzNgbHUZFUR4z-44" value="" style="edgeStyle=orthogonalEdgeStyle;rounded=0;orthogonalLoop=1;jettySize=auto;html=1;" edge="1" parent="1" source="EKwut9ztzNgbHUZFUR4z-38" target="EKwut9ztzNgbHUZFUR4z-43">
          <mxGeometry relative="1" as="geometry" />
        </mxCell>
        <mxCell id="EKwut9ztzNgbHUZFUR4z-46" value="" style="edgeStyle=orthogonalEdgeStyle;rounded=0;orthogonalLoop=1;jettySize=auto;html=1;" edge="1" parent="1" source="EKwut9ztzNgbHUZFUR4z-38" target="EKwut9ztzNgbHUZFUR4z-45">
          <mxGeometry relative="1" as="geometry" />
        </mxCell>
        <mxCell id="EKwut9ztzNgbHUZFUR4z-38" value="RESULTADO_TRABAJO&lt;br&gt;&lt;i&gt;-Finalizado&lt;br&gt;-Calificacion&lt;br&gt;&lt;br&gt;&lt;/i&gt;" style="ellipse;whiteSpace=wrap;html=1;fillColor=#dae8fc;strokeColor=#6c8ebf;" vertex="1" parent="1">
          <mxGeometry x="-180" y="320" width="201.25" height="80" as="geometry" />
        </mxCell>
        <mxCell id="EKwut9ztzNgbHUZFUR4z-131" style="edgeStyle=orthogonalEdgeStyle;rounded=0;orthogonalLoop=1;jettySize=auto;html=1;exitX=0.5;exitY=0;exitDx=0;exitDy=0;entryX=1;entryY=0.5;entryDx=0;entryDy=0;fontFamily=Helvetica;fontSize=12;fontColor=default;" edge="1" parent="1" source="EKwut9ztzNgbHUZFUR4z-41" target="EKwut9ztzNgbHUZFUR4z-129">
          <mxGeometry relative="1" as="geometry">
            <Array as="points">
              <mxPoint x="-80" y="70" />
            </Array>
          </mxGeometry>
        </mxCell>
        <mxCell id="EKwut9ztzNgbHUZFUR4z-41" value="CalificacionMala" style="rhombus;whiteSpace=wrap;html=1;fillColor=#d5e8d4;strokeColor=#82b366;" vertex="1" parent="1">
          <mxGeometry x="-180" y="160" width="200" height="80" as="geometry" />
        </mxCell>
        <mxCell id="EKwut9ztzNgbHUZFUR4z-133" value="" style="edgeStyle=orthogonalEdgeStyle;rounded=0;orthogonalLoop=1;jettySize=auto;html=1;fontFamily=Helvetica;fontSize=12;fontColor=default;" edge="1" parent="1" source="EKwut9ztzNgbHUZFUR4z-43" target="EKwut9ztzNgbHUZFUR4z-132">
          <mxGeometry relative="1" as="geometry" />
        </mxCell>
        <mxCell id="EKwut9ztzNgbHUZFUR4z-43" value="CalificacionRegular" style="rhombus;whiteSpace=wrap;html=1;fillColor=#d5e8d4;strokeColor=#82b366;" vertex="1" parent="1">
          <mxGeometry x="-470" y="320" width="189.38" height="80" as="geometry" />
        </mxCell>
        <mxCell id="EKwut9ztzNgbHUZFUR4z-106" value="" style="edgeStyle=orthogonalEdgeStyle;rounded=0;orthogonalLoop=1;jettySize=auto;html=1;fontFamily=Helvetica;fontSize=12;fontColor=default;" edge="1" parent="1" source="EKwut9ztzNgbHUZFUR4z-45" target="EKwut9ztzNgbHUZFUR4z-105">
          <mxGeometry relative="1" as="geometry" />
        </mxCell>
        <mxCell id="EKwut9ztzNgbHUZFUR4z-145" value="" style="edgeStyle=orthogonalEdgeStyle;rounded=0;orthogonalLoop=1;jettySize=auto;html=1;fontFamily=Helvetica;fontSize=12;fontColor=default;" edge="1" parent="1" source="EKwut9ztzNgbHUZFUR4z-45" target="EKwut9ztzNgbHUZFUR4z-144">
          <mxGeometry relative="1" as="geometry" />
        </mxCell>
        <mxCell id="EKwut9ztzNgbHUZFUR4z-45" value="CalifacacionBuena" style="rhombus;whiteSpace=wrap;html=1;fillColor=#d5e8d4;strokeColor=#82b366;" vertex="1" parent="1">
          <mxGeometry x="-179.38" y="570" width="200.63" height="80" as="geometry" />
        </mxCell>
        <mxCell id="EKwut9ztzNgbHUZFUR4z-49" value="Cobertura" style="ellipse;whiteSpace=wrap;html=1;fillColor=#e1d5e7;strokeColor=#9673a6;" vertex="1" parent="1">
          <mxGeometry x="330" y="509.5" width="80" height="20" as="geometry" />
        </mxCell>
        <mxCell id="EKwut9ztzNgbHUZFUR4z-50" value="Descripcion" style="ellipse;whiteSpace=wrap;html=1;fillColor=#e1d5e7;strokeColor=#9673a6;" vertex="1" parent="1">
          <mxGeometry x="331.25" y="536.5" width="80" height="20" as="geometry" />
        </mxCell>
        <mxCell id="EKwut9ztzNgbHUZFUR4z-56" value="Fotos" style="ellipse;whiteSpace=wrap;html=1;fillColor=#e1d5e7;strokeColor=#9673a6;" vertex="1" parent="1">
          <mxGeometry x="331.25" y="562.5" width="80" height="20" as="geometry" />
        </mxCell>
        <mxCell id="EKwut9ztzNgbHUZFUR4z-57" value="Horarios" style="ellipse;whiteSpace=wrap;html=1;fillColor=#e1d5e7;strokeColor=#9673a6;" vertex="1" parent="1">
          <mxGeometry x="331.25" y="483.5" width="80" height="20" as="geometry" />
        </mxCell>
        <mxCell id="EKwut9ztzNgbHUZFUR4z-59" value="Dias" style="ellipse;whiteSpace=wrap;html=1;fillColor=#e1d5e7;strokeColor=#9673a6;" vertex="1" parent="1">
          <mxGeometry x="331.25" y="457.5" width="80" height="20" as="geometry" />
        </mxCell>
        <mxCell id="EKwut9ztzNgbHUZFUR4z-63" value="" style="endArrow=none;html=1;rounded=0;fontFamily=Helvetica;fontSize=12;fontColor=default;entryX=0;entryY=0.5;entryDx=0;entryDy=0;exitX=1;exitY=0.5;exitDx=0;exitDy=0;" edge="1" parent="1" source="EKwut9ztzNgbHUZFUR4z-14" target="EKwut9ztzNgbHUZFUR4z-59">
          <mxGeometry width="50" height="50" relative="1" as="geometry">
            <mxPoint x="340" y="530" as="sourcePoint" />
            <mxPoint x="390" y="480" as="targetPoint" />
            <Array as="points" />
          </mxGeometry>
        </mxCell>
        <mxCell id="EKwut9ztzNgbHUZFUR4z-64" value="" style="endArrow=none;html=1;rounded=0;fontFamily=Helvetica;fontSize=12;fontColor=default;exitX=0;exitY=0.5;exitDx=0;exitDy=0;entryX=1;entryY=0.5;entryDx=0;entryDy=0;" edge="1" parent="1" source="EKwut9ztzNgbHUZFUR4z-50" target="EKwut9ztzNgbHUZFUR4z-14">
          <mxGeometry width="50" height="50" relative="1" as="geometry">
            <mxPoint x="340" y="530" as="sourcePoint" />
            <mxPoint x="300" y="510" as="targetPoint" />
          </mxGeometry>
        </mxCell>
        <mxCell id="EKwut9ztzNgbHUZFUR4z-66" value="" style="endArrow=none;html=1;rounded=0;fontFamily=Helvetica;fontSize=12;fontColor=default;entryX=1;entryY=0.5;entryDx=0;entryDy=0;exitX=0;exitY=0.5;exitDx=0;exitDy=0;" edge="1" parent="1" source="EKwut9ztzNgbHUZFUR4z-56" target="EKwut9ztzNgbHUZFUR4z-14">
          <mxGeometry width="50" height="50" relative="1" as="geometry">
            <mxPoint x="340" y="530" as="sourcePoint" />
            <mxPoint x="390" y="480" as="targetPoint" />
          </mxGeometry>
        </mxCell>
        <mxCell id="EKwut9ztzNgbHUZFUR4z-68" value="" style="endArrow=none;html=1;rounded=0;fontFamily=Helvetica;fontSize=12;fontColor=default;exitX=1;exitY=0.5;exitDx=0;exitDy=0;entryX=0;entryY=0.5;entryDx=0;entryDy=0;" edge="1" parent="1" source="EKwut9ztzNgbHUZFUR4z-14" target="EKwut9ztzNgbHUZFUR4z-49">
          <mxGeometry width="50" height="50" relative="1" as="geometry">
            <mxPoint x="340" y="530" as="sourcePoint" />
            <mxPoint x="390" y="480" as="targetPoint" />
          </mxGeometry>
        </mxCell>
        <mxCell id="EKwut9ztzNgbHUZFUR4z-69" value="" style="endArrow=none;html=1;rounded=0;fontFamily=Helvetica;fontSize=12;fontColor=default;exitX=1;exitY=0.5;exitDx=0;exitDy=0;entryX=0;entryY=0.5;entryDx=0;entryDy=0;" edge="1" parent="1" source="EKwut9ztzNgbHUZFUR4z-14" target="EKwut9ztzNgbHUZFUR4z-57">
          <mxGeometry width="50" height="50" relative="1" as="geometry">
            <mxPoint x="340" y="530" as="sourcePoint" />
            <mxPoint x="330" y="490" as="targetPoint" />
          </mxGeometry>
        </mxCell>
        <mxCell id="EKwut9ztzNgbHUZFUR4z-70" value="FechaNacimiento" style="ellipse;whiteSpace=wrap;html=1;fillColor=#e1d5e7;strokeColor=#9673a6;" vertex="1" parent="1">
          <mxGeometry x="357.25" y="722" width="132.75" height="20" as="geometry" />
        </mxCell>
        <mxCell id="EKwut9ztzNgbHUZFUR4z-71" value="NroDocumento" style="ellipse;whiteSpace=wrap;html=1;fillColor=#e1d5e7;strokeColor=#9673a6;" vertex="1" parent="1">
          <mxGeometry x="358.5" y="749" width="131.5" height="20" as="geometry" />
        </mxCell>
        <mxCell id="EKwut9ztzNgbHUZFUR4z-72" value="Cuit" style="ellipse;whiteSpace=wrap;html=1;fillColor=#e1d5e7;strokeColor=#9673a6;" vertex="1" parent="1">
          <mxGeometry x="358.5" y="775" width="80" height="20" as="geometry" />
        </mxCell>
        <mxCell id="EKwut9ztzNgbHUZFUR4z-73" value="Apellido" style="ellipse;whiteSpace=wrap;html=1;fillColor=#e1d5e7;strokeColor=#9673a6;" vertex="1" parent="1">
          <mxGeometry x="358.5" y="696" width="80" height="20" as="geometry" />
        </mxCell>
        <mxCell id="EKwut9ztzNgbHUZFUR4z-74" value="Nombre" style="ellipse;whiteSpace=wrap;html=1;fillColor=#e1d5e7;strokeColor=#9673a6;" vertex="1" parent="1">
          <mxGeometry x="358.5" y="670" width="80" height="20" as="geometry" />
        </mxCell>
        <mxCell id="EKwut9ztzNgbHUZFUR4z-76" value="" style="endArrow=none;html=1;rounded=0;fontFamily=Helvetica;fontSize=12;fontColor=default;exitX=0;exitY=0.5;exitDx=0;exitDy=0;entryX=1;entryY=0.5;entryDx=0;entryDy=0;" edge="1" parent="1" source="EKwut9ztzNgbHUZFUR4z-71" target="EKwut9ztzNgbHUZFUR4z-16">
          <mxGeometry width="50" height="50" relative="1" as="geometry">
            <mxPoint x="367.25" y="742.5" as="sourcePoint" />
            <mxPoint x="271.25" y="725.5" as="targetPoint" />
          </mxGeometry>
        </mxCell>
        <mxCell id="EKwut9ztzNgbHUZFUR4z-78" value="" style="endArrow=none;html=1;rounded=0;fontFamily=Helvetica;fontSize=12;fontColor=default;entryX=0;entryY=0.5;entryDx=0;entryDy=0;exitX=1;exitY=0.5;exitDx=0;exitDy=0;" edge="1" parent="1" target="EKwut9ztzNgbHUZFUR4z-70" source="EKwut9ztzNgbHUZFUR4z-16">
          <mxGeometry width="50" height="50" relative="1" as="geometry">
            <mxPoint x="250" y="680" as="sourcePoint" />
            <mxPoint x="417.25" y="692.5" as="targetPoint" />
          </mxGeometry>
        </mxCell>
        <mxCell id="EKwut9ztzNgbHUZFUR4z-79" value="" style="endArrow=none;html=1;rounded=0;fontFamily=Helvetica;fontSize=12;fontColor=default;exitX=1;exitY=0.5;exitDx=0;exitDy=0;entryX=0;entryY=0.5;entryDx=0;entryDy=0;" edge="1" parent="1" target="EKwut9ztzNgbHUZFUR4z-73" source="EKwut9ztzNgbHUZFUR4z-16">
          <mxGeometry width="50" height="50" relative="1" as="geometry">
            <mxPoint x="271.25" y="725.5" as="sourcePoint" />
            <mxPoint x="357.25" y="702.5" as="targetPoint" />
          </mxGeometry>
        </mxCell>
        <mxCell id="EKwut9ztzNgbHUZFUR4z-81" value="Telefono" style="ellipse;whiteSpace=wrap;html=1;fillColor=#e1d5e7;strokeColor=#9673a6;" vertex="1" parent="1">
          <mxGeometry x="357.25" y="803" width="80" height="20" as="geometry" />
        </mxCell>
        <mxCell id="EKwut9ztzNgbHUZFUR4z-82" value="Email" style="ellipse;whiteSpace=wrap;html=1;fillColor=#e1d5e7;strokeColor=#9673a6;" vertex="1" parent="1">
          <mxGeometry x="357.25" y="830" width="80" height="20" as="geometry" />
        </mxCell>
        <mxCell id="EKwut9ztzNgbHUZFUR4z-84" value="" style="endArrow=none;html=1;rounded=0;fontFamily=Helvetica;fontSize=12;fontColor=default;entryX=0;entryY=0.5;entryDx=0;entryDy=0;exitX=1;exitY=0.5;exitDx=0;exitDy=0;" edge="1" parent="1" source="EKwut9ztzNgbHUZFUR4z-16" target="EKwut9ztzNgbHUZFUR4z-81">
          <mxGeometry width="50" height="50" relative="1" as="geometry">
            <mxPoint x="280" y="730" as="sourcePoint" />
            <mxPoint x="400" y="610" as="targetPoint" />
          </mxGeometry>
        </mxCell>
        <mxCell id="EKwut9ztzNgbHUZFUR4z-86" value="" style="endArrow=none;html=1;rounded=0;fontFamily=Helvetica;fontSize=12;fontColor=default;exitX=0;exitY=0.5;exitDx=0;exitDy=0;entryX=1;entryY=0.5;entryDx=0;entryDy=0;" edge="1" parent="1" source="EKwut9ztzNgbHUZFUR4z-72" target="EKwut9ztzNgbHUZFUR4z-16">
          <mxGeometry width="50" height="50" relative="1" as="geometry">
            <mxPoint x="350" y="760" as="sourcePoint" />
            <mxPoint x="400" y="710" as="targetPoint" />
          </mxGeometry>
        </mxCell>
        <mxCell id="EKwut9ztzNgbHUZFUR4z-87" value="" style="endArrow=none;html=1;rounded=0;fontFamily=Helvetica;fontSize=12;fontColor=default;exitX=0;exitY=0.5;exitDx=0;exitDy=0;entryX=1;entryY=0.5;entryDx=0;entryDy=0;" edge="1" parent="1" source="EKwut9ztzNgbHUZFUR4z-82" target="EKwut9ztzNgbHUZFUR4z-16">
          <mxGeometry width="50" height="50" relative="1" as="geometry">
            <mxPoint x="350" y="760" as="sourcePoint" />
            <mxPoint x="400" y="710" as="targetPoint" />
          </mxGeometry>
        </mxCell>
        <mxCell id="EKwut9ztzNgbHUZFUR4z-88" value="" style="endArrow=none;html=1;rounded=0;fontFamily=Helvetica;fontSize=12;fontColor=default;entryX=0;entryY=0.5;entryDx=0;entryDy=0;exitX=1;exitY=0.5;exitDx=0;exitDy=0;" edge="1" parent="1" source="EKwut9ztzNgbHUZFUR4z-16" target="EKwut9ztzNgbHUZFUR4z-74">
          <mxGeometry width="50" height="50" relative="1" as="geometry">
            <mxPoint x="350" y="760" as="sourcePoint" />
            <mxPoint x="400" y="710" as="targetPoint" />
          </mxGeometry>
        </mxCell>
        <mxCell id="EKwut9ztzNgbHUZFUR4z-91" value="RangoHorario" style="ellipse;whiteSpace=wrap;html=1;fillColor=#e1d5e7;strokeColor=#9673a6;fontStyle=1" vertex="1" parent="1">
          <mxGeometry x="669" y="450" width="89" height="27.62" as="geometry" />
        </mxCell>
        <mxCell id="EKwut9ztzNgbHUZFUR4z-92" value="TareaARealizar" style="ellipse;whiteSpace=wrap;html=1;fillColor=#e1d5e7;strokeColor=#9673a6;fontStyle=1" vertex="1" parent="1">
          <mxGeometry x="770" y="450" width="121" height="28.87" as="geometry" />
        </mxCell>
        <mxCell id="EKwut9ztzNgbHUZFUR4z-93" value="Lugar" style="ellipse;whiteSpace=wrap;html=1;fillColor=#e1d5e7;strokeColor=#9673a6;fontStyle=1" vertex="1" parent="1">
          <mxGeometry x="580" y="448.37" width="80" height="32.12" as="geometry" />
        </mxCell>
        <mxCell id="EKwut9ztzNgbHUZFUR4z-94" value="Fecha" style="ellipse;whiteSpace=wrap;html=1;fillColor=#e1d5e7;strokeColor=#9673a6;fontStyle=1" vertex="1" parent="1">
          <mxGeometry x="490" y="450" width="80" height="28.87" as="geometry" />
        </mxCell>
        <mxCell id="EKwut9ztzNgbHUZFUR4z-101" value="Calificacion" style="ellipse;whiteSpace=wrap;html=1;fillColor=#e1d5e7;strokeColor=#9673a6;" vertex="1" parent="1">
          <mxGeometry x="-310" y="447.75" width="104.25" height="42.25" as="geometry" />
        </mxCell>
        <mxCell id="EKwut9ztzNgbHUZFUR4z-102" value="Finalizado" style="ellipse;whiteSpace=wrap;html=1;fillColor=#e1d5e7;strokeColor=#9673a6;" vertex="1" parent="1">
          <mxGeometry x="-310" y="400" width="104.25" height="41.75" as="geometry" />
        </mxCell>
        <mxCell id="EKwut9ztzNgbHUZFUR4z-103" value="" style="endArrow=none;html=1;rounded=0;fontFamily=Helvetica;fontSize=12;fontColor=default;entryX=1;entryY=0.5;entryDx=0;entryDy=0;exitX=0;exitY=1;exitDx=0;exitDy=0;" edge="1" parent="1" target="EKwut9ztzNgbHUZFUR4z-101" source="EKwut9ztzNgbHUZFUR4z-38">
          <mxGeometry width="50" height="50" relative="1" as="geometry">
            <mxPoint x="-470" y="495.25" as="sourcePoint" />
            <mxPoint x="-324" y="462.25" as="targetPoint" />
            <Array as="points" />
          </mxGeometry>
        </mxCell>
        <mxCell id="EKwut9ztzNgbHUZFUR4z-104" value="" style="endArrow=none;html=1;rounded=0;fontFamily=Helvetica;fontSize=12;fontColor=default;exitX=0;exitY=1;exitDx=0;exitDy=0;entryX=1;entryY=0.5;entryDx=0;entryDy=0;" edge="1" parent="1" target="EKwut9ztzNgbHUZFUR4z-102" source="EKwut9ztzNgbHUZFUR4z-38">
          <mxGeometry width="50" height="50" relative="1" as="geometry">
            <mxPoint x="-470" y="495.25" as="sourcePoint" />
            <mxPoint x="-270" y="510" as="targetPoint" />
          </mxGeometry>
        </mxCell>
        <mxCell id="EKwut9ztzNgbHUZFUR4z-105" value="ContratacionSinLimite" style="ellipse;whiteSpace=wrap;html=1;fillColor=#e1d5e7;strokeColor=#9673a6;" vertex="1" parent="1">
          <mxGeometry x="-464.54" y="720" width="189.07" height="40" as="geometry" />
        </mxCell>
        <mxCell id="EKwut9ztzNgbHUZFUR4z-107" value="ContratacionLimitada4" style="ellipse;whiteSpace=wrap;html=1;fillColor=#e1d5e7;strokeColor=#9673a6;" vertex="1" parent="1">
          <mxGeometry x="-570" y="417.5" width="145.31" height="40" as="geometry" />
        </mxCell>
        <mxCell id="EKwut9ztzNgbHUZFUR4z-109" value="ContratacionLimitada1" style="ellipse;whiteSpace=wrap;html=1;fillColor=#e1d5e7;strokeColor=#9673a6;" vertex="1" parent="1">
          <mxGeometry x="-425" y="180" width="190" height="40" as="geometry" />
        </mxCell>
        <mxCell id="EKwut9ztzNgbHUZFUR4z-123" style="edgeStyle=orthogonalEdgeStyle;rounded=0;orthogonalLoop=1;jettySize=auto;html=1;exitX=0;exitY=0.5;exitDx=0;exitDy=0;entryX=0.5;entryY=0;entryDx=0;entryDy=0;fontFamily=Helvetica;fontSize=12;fontColor=default;" edge="1" parent="1" source="EKwut9ztzNgbHUZFUR4z-111" target="EKwut9ztzNgbHUZFUR4z-27">
          <mxGeometry relative="1" as="geometry" />
        </mxCell>
        <mxCell id="EKwut9ztzNgbHUZFUR4z-111" value="Busqueda" style="rhombus;whiteSpace=wrap;html=1;fillColor=#d5e8d4;strokeColor=#82b366;" vertex="1" parent="1">
          <mxGeometry x="470" y="190" width="175" height="70" as="geometry" />
        </mxCell>
        <mxCell id="EKwut9ztzNgbHUZFUR4z-113" value="RangoHorario" style="ellipse;whiteSpace=wrap;html=1;fillColor=#e1d5e7;strokeColor=#9673a6;fontStyle=1" vertex="1" parent="1">
          <mxGeometry x="649" y="137" width="109" height="20" as="geometry" />
        </mxCell>
        <mxCell id="EKwut9ztzNgbHUZFUR4z-115" value="DiasAtencion" style="ellipse;whiteSpace=wrap;html=1;fillColor=#e1d5e7;strokeColor=#9673a6;fontStyle=1" vertex="1" parent="1">
          <mxGeometry x="649" y="111" width="109" height="19" as="geometry" />
        </mxCell>
        <mxCell id="EKwut9ztzNgbHUZFUR4z-116" value="RadioCercania" style="ellipse;whiteSpace=wrap;html=1;fillColor=#e1d5e7;strokeColor=#9673a6;fontStyle=1" vertex="1" parent="1">
          <mxGeometry x="649" y="85" width="109" height="20" as="geometry" />
        </mxCell>
        <mxCell id="EKwut9ztzNgbHUZFUR4z-118" value="" style="endArrow=none;html=1;rounded=0;fontFamily=Helvetica;fontSize=12;fontColor=default;entryX=0;entryY=0.5;entryDx=0;entryDy=0;exitX=0.5;exitY=0;exitDx=0;exitDy=0;" edge="1" parent="1" source="EKwut9ztzNgbHUZFUR4z-111">
          <mxGeometry width="50" height="50" relative="1" as="geometry">
            <mxPoint x="408.25" y="207.5" as="sourcePoint" />
            <mxPoint x="648" y="95" as="targetPoint" />
          </mxGeometry>
        </mxCell>
        <mxCell id="EKwut9ztzNgbHUZFUR4z-120" value="" style="endArrow=none;html=1;rounded=0;fontFamily=Helvetica;fontSize=12;fontColor=default;entryX=0;entryY=0.5;entryDx=0;entryDy=0;exitX=0.5;exitY=0;exitDx=0;exitDy=0;" edge="1" parent="1" source="EKwut9ztzNgbHUZFUR4z-111">
          <mxGeometry width="50" height="50" relative="1" as="geometry">
            <mxPoint x="560" y="190" as="sourcePoint" />
            <mxPoint x="648" y="120.5" as="targetPoint" />
          </mxGeometry>
        </mxCell>
        <mxCell id="EKwut9ztzNgbHUZFUR4z-121" value="" style="endArrow=none;html=1;rounded=0;fontFamily=Helvetica;fontSize=12;fontColor=default;exitX=0.5;exitY=0;exitDx=0;exitDy=0;entryX=0;entryY=0.5;entryDx=0;entryDy=0;" edge="1" parent="1" source="EKwut9ztzNgbHUZFUR4z-111" target="EKwut9ztzNgbHUZFUR4z-113">
          <mxGeometry width="50" height="50" relative="1" as="geometry">
            <mxPoint x="409.25" y="207.5" as="sourcePoint" />
            <mxPoint x="348" y="150" as="targetPoint" />
          </mxGeometry>
        </mxCell>
        <mxCell id="EKwut9ztzNgbHUZFUR4z-135" value="" style="edgeStyle=orthogonalEdgeStyle;rounded=0;orthogonalLoop=1;jettySize=auto;html=1;fontFamily=Helvetica;fontSize=12;fontColor=default;" edge="1" parent="1" source="EKwut9ztzNgbHUZFUR4z-129" target="EKwut9ztzNgbHUZFUR4z-134">
          <mxGeometry relative="1" as="geometry" />
        </mxCell>
        <mxCell id="EKwut9ztzNgbHUZFUR4z-129" value="ReputacionMala" style="rounded=0;whiteSpace=wrap;html=1;pointerEvents=1;strokeColor=#6c8ebf;strokeWidth=1;align=center;verticalAlign=middle;fontFamily=Helvetica;fontSize=12;fillColor=#dae8fc;" vertex="1" parent="1">
          <mxGeometry x="-390" y="40" width="120" height="60" as="geometry" />
        </mxCell>
        <mxCell id="EKwut9ztzNgbHUZFUR4z-141" value="" style="edgeStyle=orthogonalEdgeStyle;rounded=0;orthogonalLoop=1;jettySize=auto;html=1;fontFamily=Helvetica;fontSize=12;fontColor=default;" edge="1" parent="1" source="EKwut9ztzNgbHUZFUR4z-132" target="EKwut9ztzNgbHUZFUR4z-140">
          <mxGeometry relative="1" as="geometry" />
        </mxCell>
        <mxCell id="EKwut9ztzNgbHUZFUR4z-150" style="edgeStyle=orthogonalEdgeStyle;rounded=0;orthogonalLoop=1;jettySize=auto;html=1;entryX=0.5;entryY=1;entryDx=0;entryDy=0;fontFamily=Helvetica;fontSize=12;fontColor=default;" edge="1" parent="1" source="EKwut9ztzNgbHUZFUR4z-132" target="EKwut9ztzNgbHUZFUR4z-134">
          <mxGeometry relative="1" as="geometry" />
        </mxCell>
        <mxCell id="EKwut9ztzNgbHUZFUR4z-132" value="ReputacionRegular" style="whiteSpace=wrap;html=1;fillColor=#dae8fc;strokeColor=#6c8ebf;" vertex="1" parent="1">
          <mxGeometry x="-690" y="329" width="120" height="60" as="geometry" />
        </mxCell>
        <mxCell id="EKwut9ztzNgbHUZFUR4z-138" style="edgeStyle=orthogonalEdgeStyle;rounded=0;orthogonalLoop=1;jettySize=auto;html=1;entryX=0.5;entryY=0;entryDx=0;entryDy=0;fontFamily=Helvetica;fontSize=12;fontColor=default;" edge="1" parent="1" source="EKwut9ztzNgbHUZFUR4z-134" target="EKwut9ztzNgbHUZFUR4z-132">
          <mxGeometry relative="1" as="geometry" />
        </mxCell>
        <mxCell id="EKwut9ztzNgbHUZFUR4z-151" style="edgeStyle=orthogonalEdgeStyle;rounded=0;orthogonalLoop=1;jettySize=auto;html=1;fontFamily=Helvetica;fontSize=12;fontColor=default;" edge="1" parent="1" source="EKwut9ztzNgbHUZFUR4z-134" target="EKwut9ztzNgbHUZFUR4z-129">
          <mxGeometry relative="1" as="geometry" />
        </mxCell>
        <mxCell id="EKwut9ztzNgbHUZFUR4z-134" value="SubeBajaCaliifacion" style="rhombus;whiteSpace=wrap;html=1;fillColor=#d5e8d4;strokeColor=#82b366;rounded=0;strokeWidth=1;" vertex="1" parent="1">
          <mxGeometry x="-720" y="30" width="180" height="80" as="geometry" />
        </mxCell>
        <mxCell id="EKwut9ztzNgbHUZFUR4z-147" style="edgeStyle=orthogonalEdgeStyle;rounded=0;orthogonalLoop=1;jettySize=auto;html=1;exitX=0.5;exitY=1;exitDx=0;exitDy=0;entryX=0;entryY=0.5;entryDx=0;entryDy=0;fontFamily=Helvetica;fontSize=12;fontColor=default;" edge="1" parent="1" source="EKwut9ztzNgbHUZFUR4z-140" target="EKwut9ztzNgbHUZFUR4z-144">
          <mxGeometry relative="1" as="geometry" />
        </mxCell>
        <mxCell id="EKwut9ztzNgbHUZFUR4z-149" style="edgeStyle=orthogonalEdgeStyle;rounded=0;orthogonalLoop=1;jettySize=auto;html=1;entryX=0.5;entryY=1;entryDx=0;entryDy=0;fontFamily=Helvetica;fontSize=12;fontColor=default;" edge="1" parent="1" source="EKwut9ztzNgbHUZFUR4z-140" target="EKwut9ztzNgbHUZFUR4z-132">
          <mxGeometry relative="1" as="geometry" />
        </mxCell>
        <mxCell id="EKwut9ztzNgbHUZFUR4z-140" value="SubeBajaCalificacion" style="rhombus;whiteSpace=wrap;html=1;fillColor=#d5e8d4;strokeColor=#82b366;" vertex="1" parent="1">
          <mxGeometry x="-705" y="467.75" width="150" height="80" as="geometry" />
        </mxCell>
        <mxCell id="EKwut9ztzNgbHUZFUR4z-148" style="edgeStyle=orthogonalEdgeStyle;rounded=0;orthogonalLoop=1;jettySize=auto;html=1;entryX=0.5;entryY=1;entryDx=0;entryDy=0;fontFamily=Helvetica;fontSize=12;fontColor=default;" edge="1" parent="1" source="EKwut9ztzNgbHUZFUR4z-144" target="EKwut9ztzNgbHUZFUR4z-140">
          <mxGeometry relative="1" as="geometry" />
        </mxCell>
        <mxCell id="EKwut9ztzNgbHUZFUR4z-144" value="ReputacionBuena" style="whiteSpace=wrap;html=1;fillColor=#dae8fc;strokeColor=#6c8ebf;" vertex="1" parent="1">
          <mxGeometry x="-430.005" y="580" width="120" height="60" as="geometry" />
        </mxCell>
        <mxCell id="EKwut9ztzNgbHUZFUR4z-152" value="" style="endArrow=none;html=1;rounded=0;fontFamily=Helvetica;fontSize=12;fontColor=default;exitX=0.5;exitY=0;exitDx=0;exitDy=0;entryX=0.5;entryY=1;entryDx=0;entryDy=0;" edge="1" parent="1" source="EKwut9ztzNgbHUZFUR4z-93" target="EKwut9ztzNgbHUZFUR4z-24">
          <mxGeometry width="50" height="50" relative="1" as="geometry">
            <mxPoint x="40" y="440" as="sourcePoint" />
            <mxPoint x="90" y="390" as="targetPoint" />
          </mxGeometry>
        </mxCell>
        <mxCell id="EKwut9ztzNgbHUZFUR4z-154" value="" style="endArrow=none;html=1;rounded=0;fontFamily=Helvetica;fontSize=12;fontColor=default;exitX=0.5;exitY=0;exitDx=0;exitDy=0;entryX=0.5;entryY=1;entryDx=0;entryDy=0;" edge="1" parent="1" source="EKwut9ztzNgbHUZFUR4z-94" target="EKwut9ztzNgbHUZFUR4z-24">
          <mxGeometry width="50" height="50" relative="1" as="geometry">
            <mxPoint x="40" y="440" as="sourcePoint" />
            <mxPoint x="90" y="390" as="targetPoint" />
          </mxGeometry>
        </mxCell>
        <mxCell id="EKwut9ztzNgbHUZFUR4z-156" value="" style="endArrow=none;html=1;rounded=0;fontFamily=Helvetica;fontSize=12;fontColor=default;entryX=0.5;entryY=1;entryDx=0;entryDy=0;exitX=0.5;exitY=0;exitDx=0;exitDy=0;" edge="1" parent="1" source="EKwut9ztzNgbHUZFUR4z-91" target="EKwut9ztzNgbHUZFUR4z-24">
          <mxGeometry width="50" height="50" relative="1" as="geometry">
            <mxPoint x="570" y="430" as="sourcePoint" />
            <mxPoint x="620" y="380" as="targetPoint" />
          </mxGeometry>
        </mxCell>
        <mxCell id="EKwut9ztzNgbHUZFUR4z-157" value="" style="endArrow=none;html=1;rounded=0;fontFamily=Helvetica;fontSize=12;fontColor=default;entryX=0.5;entryY=1;entryDx=0;entryDy=0;exitX=0.5;exitY=0;exitDx=0;exitDy=0;" edge="1" parent="1" source="EKwut9ztzNgbHUZFUR4z-92" target="EKwut9ztzNgbHUZFUR4z-24">
          <mxGeometry width="50" height="50" relative="1" as="geometry">
            <mxPoint x="570" y="430" as="sourcePoint" />
            <mxPoint x="620" y="380" as="targetPoint" />
          </mxGeometry>
        </mxCell>
        <mxCell id="EKwut9ztzNgbHUZFUR4z-165" value="" style="endArrow=none;html=1;rounded=0;fontFamily=Helvetica;fontSize=12;fontColor=default;exitX=1;exitY=1;exitDx=0;exitDy=0;entryX=0.5;entryY=0;entryDx=0;entryDy=0;" edge="1" parent="1" source="EKwut9ztzNgbHUZFUR4z-132" target="EKwut9ztzNgbHUZFUR4z-107">
          <mxGeometry width="50" height="50" relative="1" as="geometry">
            <mxPoint x="-380" y="470" as="sourcePoint" />
            <mxPoint x="-330" y="420" as="targetPoint" />
          </mxGeometry>
        </mxCell>
        <mxCell id="EKwut9ztzNgbHUZFUR4z-167" value="" style="endArrow=none;html=1;rounded=0;fontFamily=Helvetica;fontSize=12;fontColor=default;entryX=0.5;entryY=1;entryDx=0;entryDy=0;exitX=0.5;exitY=0;exitDx=0;exitDy=0;" edge="1" parent="1" source="EKwut9ztzNgbHUZFUR4z-109" target="EKwut9ztzNgbHUZFUR4z-129">
          <mxGeometry width="50" height="50" relative="1" as="geometry">
            <mxPoint x="-380" y="470" as="sourcePoint" />
            <mxPoint x="-330" y="420" as="targetPoint" />
          </mxGeometry>
        </mxCell>
      </root>
    </mxGraphModel>
  </diagram>
</mxfile>
